<svg width="154" height="35" xmlns="http://www.w3.org/2000/svg" xmlns:xlink="http://www.w3.org/1999/xlink"><defs><path d="M57.246.153H.38C.222.153.093.268.093.41v3.96c0 .142.13.256.288.256h56.865V.153z" id="a"/><path d="M.2.153h34.812a.33.33 0 01.019 0v4.471a.33.33 0 01-.019 0H.2V.155z" id="c"/><path d="M.224.153h24.174c.159 0 .288.114.288.255V4.37c0 .142-.13.256-.289.256H.224V.153z" id="e"/></defs><g fill="none" fill-rule="evenodd"><g fill="#4F2D7F"><path d="M6.075 18.093c.65 0 1.238-.109 1.77-.328a3.95 3.95 0 001.364-.924c.379-.4.67-.88.877-1.44.208-.559.31-1.183.31-1.866a5.35 5.35 0 00-.31-1.867 4.17 4.17 0 00-.877-1.437 3.897 3.897 0 00-1.364-.925 4.621 4.621 0 00-1.77-.328 5.86 5.86 0 00-.918.072c-.307.048-.576.09-.81.128-.288.076-.566.151-.838.227v8.26c.272.076.55.143.839.2.25.076.527.132.821.17.298.04.6.058.906.058zM3.51 6.273c.272-.076.55-.153.839-.23.25-.056.527-.103.821-.142.298-.037.6-.057.906-.057 1.188 0 2.269.2 3.242.599.973.398 1.809.944 2.512 1.637.7.694 1.246 1.51 1.633 2.45.388.941.583 1.942.583 3.005a7.806 7.806 0 01-.583 3.006 7.342 7.342 0 01-1.633 2.449 7.641 7.641 0 01-2.512 1.637c-.973.4-2.054.6-3.242.6-.774 0-1.525-.068-2.255-.2a18.639 18.639 0 01-1.958-.457A14.07 14.07 0 010 19.944V.842C0 .773.051.718.117.718h3.274c.065 0 .118.055.118.124v5.43zM58.993 19.496a.132.132 0 01-.03.162 7.1 7.1 0 01-1.269.788 9.808 9.808 0 01-1.593.598c-.595.173-1.28.256-2.053.256-1.19 0-2.269-.199-3.242-.598a7.716 7.716 0 01-2.512-1.637 7.328 7.328 0 01-1.633-2.449 7.822 7.822 0 01-.581-3.006c0-1.062.194-2.065.581-3.005a7.363 7.363 0 011.633-2.45 7.745 7.745 0 012.512-1.637c.973-.4 2.053-.6 3.242-.6a7.61 7.61 0 011.998.244c.595.16 1.109.336 1.54.526.45.229.86.473 1.232.734.053.037.067.11.038.165L57.62 9.933a.112.112 0 01-.165.044 6.212 6.212 0 00-.785-.44 6.703 6.703 0 00-1.043-.341 5.45 5.45 0 00-1.307-.143c-.65 0-1.253.123-1.81.371a4.747 4.747 0 00-1.46.995 4.574 4.574 0 00-.971 1.454 4.398 4.398 0 00-.352 1.737c0 .608.118 1.188.352 1.738.233.55.556 1.035.971 1.452.414.42.901.751 1.46.997.557.246 1.16.37 1.81.37a5.321 5.321 0 002.457-.569c.298-.148.567-.31.81-.488a.115.115 0 01.172.04l1.235 2.346zM70.651 13.61c0-.684-.103-1.304-.311-1.866a4.52 4.52 0 00-.837-1.439 3.635 3.635 0 00-1.242-.923 3.61 3.61 0 00-1.526-.33c-.54 0-1.05.11-1.526.33-.478.217-.89.524-1.242.923-.352.4-.631.88-.837 1.439a5.346 5.346 0 00-.31 1.866c0 .684.102 1.307.31 1.865a4.49 4.49 0 00.837 1.44 3.654 3.654 0 002.768 1.252c.54 0 1.049-.11 1.526-.327a3.633 3.633 0 001.242-.924c.35-.4.631-.88.837-1.44.208-.56.311-1.182.311-1.866m-11.478 0c0-1.064.192-2.063.579-3.005.388-.94.92-1.756 1.596-2.45a7.455 7.455 0 012.39-1.637c.919-.4 1.917-.6 2.997-.6 1.079 0 2.085.2 3.011.6.928.399 1.73.945 2.405 1.636a7.5 7.5 0 011.58 2.45 7.97 7.97 0 01.566 3.006 7.977 7.977 0 01-.566 3.007 7.491 7.491 0 01-1.58 2.448 7.366 7.366 0 01-2.405 1.637 7.54 7.54 0 01-3.01.599 7.414 7.414 0 01-5.388-2.236 7.666 7.666 0 01-1.596-2.448 7.823 7.823 0 01-.58-3.007M88.567 9.05c-.307 0-.6.034-.878.1-.28.069-.519.129-.717.183-.25.105-.485.213-.701.321v10.95c0 .069-.054.124-.118.124H82.88a.122.122 0 01-.12-.124V7.199a12.3 12.3 0 011.648-.655c.541-.171 1.133-.319 1.78-.442.65-.123 1.352-.184 2.11-.184.665 0 1.272.057 1.822.17.549.114 1.03.247 1.446.399.447.158.857.332 1.23.521.052.028.08.093.06.153l-.866 2.762c-.024.077-.11.11-.173.069a6.783 6.783 0 00-.793-.43 7.766 7.766 0 00-1.094-.358 5.551 5.551 0 00-1.363-.154M94.74 6.486h3.273c.066 0 .118.058.118.126v13.992c0 .069-.052.124-.118.124h-3.22a.176.176 0 01-.172-.182V6.612c0-.068.051-.126.119-.126m-.524-4.129c0-.57.206-1.068.62-1.497.414-.427.928-.64 1.54-.64.61 0 1.125.213 1.539.64.415.429.623.928.623 1.497 0 .568-.208 1.068-.623 1.495a2.055 2.055 0 01-1.538.641c-.613 0-1.127-.213-1.54-.64-.415-.428-.62-.928-.62-1.496M107.247 8.978c-.308 0-.613.024-.92.07-.306.048-.577.09-.81.13-.287.074-.568.15-.836.227v8.26c.268.076.549.141.835.198.252.078.529.135.824.17.298.041.599.06.907.06.647 0 1.236-.111 1.768-.328.53-.218.986-.527 1.364-.926.379-.4.67-.879.877-1.44a5.35 5.35 0 00.311-1.864c0-.685-.105-1.305-.31-1.866a4.161 4.161 0 00-.878-1.44 3.913 3.913 0 00-1.364-.924 4.596 4.596 0 00-1.768-.327m-2.687 17.089h-3.272a.124.124 0 01-.12-.125V7.212c0-.052.031-.098.077-.118a18.235 18.235 0 011.788-.623 20.27 20.27 0 011.986-.442c.71-.124 1.452-.185 2.228-.185 1.188 0 2.267.2 3.24.598.97.4 1.81.945 2.513 1.637a7.382 7.382 0 011.633 2.45c.387.94.58 1.943.58 3.006a7.815 7.815 0 01-.58 3.004A7.362 7.362 0 01113 18.99a7.693 7.693 0 01-2.513 1.638c-.973.4-2.052.6-3.24.6-.308 0-.613-.026-.92-.074-.306-.046-.577-.09-.81-.127a86.772 86.772 0 01-.836-.227v5.143a.123.123 0 01-.12.125M117.878 20.728a.122.122 0 01-.119-.124V3.78l-.01-2.864c0-.07.056-.127.122-.127h3.28c.067 0 .12.056.12.127v19.687a.122.122 0 01-.12.124M121.152 20.728h-3.274M134.041 12.253c-.144-.93-.522-1.709-1.134-2.335a3.014 3.014 0 00-2.242-.941c-.882 0-1.636.313-2.256.94-.62.627-1.003 1.406-1.148 2.336h6.78zm1.979 2.991h-8.76a4.726 4.726 0 001.433 2.008c.667.56 1.638.84 2.916.84a5.73 5.73 0 001.46-.17 5.72 5.72 0 001.106-.4c.314-.148.592-.31.838-.489a.115.115 0 01.172.042l1.236 2.343a.131.131 0 01-.035.164 7.43 7.43 0 01-1.318.788 9.393 9.393 0 01-1.636.6 7.963 7.963 0 01-2.092.256c-1.188 0-2.264-.196-3.229-.583a7.36 7.36 0 01-2.47-1.611 7.047 7.047 0 01-1.58-2.435c-.37-.94-.555-1.961-.555-3.062 0-1.139.175-2.18.528-3.119a7.208 7.208 0 011.486-2.436 6.584 6.584 0 012.27-1.582c.87-.37 1.83-.554 2.875-.554s2.002.185 2.876.554c.873.37 1.629.899 2.269 1.582a7.234 7.234 0 011.486 2.436c.345.925.521 1.945.526 3.062a.14.14 0 01-.04.096l-1.68 1.636a.121.121 0 01-.082.034zM153.515 19.501a6.12 6.12 0 01-.513 2.463 6.135 6.135 0 01-1.512 2.094c-.667.609-1.473 1.093-2.418 1.454-.945.36-2.03.54-3.256.54-.807 0-1.538-.09-2.187-.27a10.94 10.94 0 01-1.647-.584 7.157 7.157 0 01-1.432-.855l1.292-2.451a.112.112 0 01.163-.045c.298.181.633.35 1.004.503.36.152.774.285 1.241.4.47.113.99.17 1.566.17.92 0 1.653-.161 2.202-.484.551-.323.967-.685 1.257-1.084.34-.456.583-.977.728-1.567v-.284c-.323.057-.648.105-.973.144-.304.037-.63.07-.97.098-.344.029-.687.042-1.027.042-1.153 0-2.171-.16-3.052-.483-.883-.323-1.63-.77-2.242-1.339a5.6 5.6 0 01-1.392-2.023 6.835 6.835 0 01-.472-2.563V5.955c0-.07.054-.128.12-.128h3.273c.066 0 .12.058.12.128v7.422c0 .93.319 1.71.958 2.335.639.626 1.534.94 2.687.94.378 0 .74-.024 1.094-.07.35-.048.67-.1.959-.157.323-.057.63-.124.917-.2V5.955c0-.07.054-.128.12-.128h3.273c.065 0 .119.058.119.128v13.546zM30.659 20.469V7.385c0-.11.067-.209.165-.244a22.69 22.69 0 011.914-.596c.667-.17 1.372-.315 2.119-.44a14.172 14.172 0 012.282-.186c1.15 0 2.173.161 3.063.484.893.324 1.638.77 2.243 1.339a5.693 5.693 0 011.377 2.022 6.83 6.83 0 01.47 2.561v8.144a.248.248 0 01-.241.255h-3.026a.25.25 0 01-.243-.255v-8.144c0-.929-.319-1.709-.957-2.333-.64-.627-1.535-.94-2.686-.94-.377 0-.742.034-1.095.1a147.87 147.87 0 01-.974.186c-.258.085-.503.17-.74.257a.25.25 0 00-.16.24V20.47a.25.25 0 01-.244.255h-3.025a.25.25 0 01-.242-.255M24.89 17.643c-.289.076-.604.143-.946.2-.288.056-.617.109-.984.157-.371.048-.762.071-1.177.071-1.152 0-1.957-.185-2.417-.556-.458-.37-.688-.8-.688-1.295 0-.494.23-.926.688-1.298.46-.37 1.265-.555 2.417-.555.415 0 .801.014 1.162.042.361.03.693.063.999.1.342.04.657.086.946.144v2.99zm3.511-5.555c0-1.936-.558-3.463-1.676-4.585-1.115-1.12-2.763-1.68-4.942-1.68-.809 0-1.526.075-2.147.228a9.818 9.818 0 00-1.634.54 7.74 7.74 0 00-1.261.734c-.053.036-.065.106-.037.165l1.241 2.354c.033.06.102.082.16.05a7.52 7.52 0 01.977-.455c.343-.114.744-.222 1.203-.327.46-.103.96-.158 1.498-.158 1.081 0 1.868.23 2.364.685.495.456.743 1.083.743 1.88a10.816 10.816 0 00-.892-.143 21.51 21.51 0 00-.998-.1c-.38-.026-.784-.04-1.217-.04-1.188 0-2.206.126-3.051.382-.846.257-1.544.603-2.094 1.041a3.99 3.99 0 00-1.214 1.566 4.981 4.981 0 00-.392 1.995c0 .701.13 1.362.392 1.978.26.619.664 1.145 1.214 1.58.55.439 1.248.785 2.094 1.042.845.256 1.863.385 3.051.385.883 0 1.71-.049 2.485-.143a29.2 29.2 0 001.968-.31l2.165-2.025v-6.639z"/></g><g transform="translate(83.417 30.282)"><mask id="b" fill="#fff"><use xlink:href="#a"/></mask><path d="M56.163 16.205H-9.939c-.598 0-1.082-.43-1.082-.96V-2.659c0-.53.485-.96 1.082-.96h66.103c.597 0 1.082.43 1.082.96v17.904c0 .53-.485.96-1.083.96" fill="#E22D36" mask="url(#b)"/></g><g transform="translate(118.223 30.282)"><mask id="d" fill="#fff"><use xlink:href="#c"/></mask><path d="M35.03 16.205H1.168c-.534 0-.967-.899-.967-2.007v-15.81c0-1.108.433-2.007.967-2.007H35.03" fill="#F2AD4B" mask="url(#d)"/></g><g transform="translate(128.838 30.282)"><mask id="f" fill="#fff"><use xlink:href="#e"/></mask><path d="M24.11 16.205H1.305c-.597 0-1.081-.43-1.081-.96V-2.659c0-.53.484-.96 1.082-.96H24.11c.598 0 1.082.43 1.082.96v17.904c0 .53-.484.96-1.082.96" fill="#894590" mask="url(#f)"/></g></g></svg>