<svg width="14" height="16" xmlns="http://www.w3.org/2000/svg"><path d="M13.997 15.127c0-.1-.126-.13-.126-.13-1.256-.24-2.43-1.13-3.316-2.066-1.45-1.535-2.664-3.49-3.132-4.399-.142-.33.059-.366.059-.366l-.001-.002c2.46-.939 2.877-3.4 2.881-4.072C10.376.969 7.434.034 4.783.023 4.273.02 3.936.04 3.59.058c-.333.019-.674.038-1.186.035C1.191.087.461 0 .274 0 .108 0 .001.146 0 .313c-.004.754 1.713-.516 1.702 1.996l-.049 10.043c-.01 2.325-1.634 1.67-1.637 2.234 0 .187.21.258.332.259.301.002.623-.019.99-.04.373-.02.793-.04 1.288-.039 1.234.006 1.546.096 2.257.1.518.002.604-.105.605-.25.004-.715-2.195.364-2.18-2.65l.05-10.591C3.36.748 3.818.75 4.486.753 6.89.764 8.784 2.117 8.815 4.65 8.833 6.37 7.545 8 5.414 7.99c-.753-.002-.587-.047-.756-.047-.1-.003-.207.04-.207.184-.002.196.154.294.332.345.235.101.773.194 1.328 1.062h.002c1.413 2.345 2.999 5.858 6.652 5.876 1.366.006 1.23-.155 1.232-.282" fill="#7B7E83" fill-rule="evenodd"/></svg>